<svg xmlns="http://www.w3.org/2000/svg" viewBox="0 0 193.99 65.2"><defs><style>.cls-1,.cls-2,.cls-3{fill:#00768e;}.cls-2{font-size:12.38px;letter-spacing:0.31em;}.cls-2,.cls-3{font-family:Arial-Black, Arial;font-weight:800;}.cls-3{font-size:24px;}.cls-4{fill:none;stroke:#00768e;stroke-miterlimit:10;}.cls-5{fill:#fff;}</style></defs><g id="Layer_2" data-name="Layer 2"><g id="Layer_1-2" data-name="Layer 1"><path class="cls-1" d="M32.6,11.34V32.6H11.34A21.26,21.26,0,0,1,32.6,11.34Z"/><path class="cls-1" d="M53.86,32.6H32.6V11.34A21.26,21.26,0,0,1,53.86,32.6Z"/><path class="cls-1" d="M53.86,32.6A21.26,21.26,0,0,1,32.6,53.86V32.6Z"/><path class="cls-1" d="M32.6,32.6V53.86A21.26,21.26,0,0,1,11.34,32.6Z"/><text class="cls-2" transform="translate(64.52 30.29) scale(1 1.02)">ŠTAMPARIJA</text><text class="cls-3" transform="translate(64.52 52.91) scale(1.07 1)">VINJETA</text><line class="cls-4" x1="32.6" x2="32.6" y2="65.2"/><line class="cls-4" x1="65.2" y1="32.6" y2="32.6"/><line class="cls-4" x1="193.99" y1="32.6" x2="65.2" y2="32.6"/><path class="cls-1" d="M32.6,11.34A21.26,21.26,0,1,1,11.34,32.6,21.26,21.26,0,0,1,32.6,11.34m0-.5A21.76,21.76,0,1,0,54.36,32.6,21.78,21.78,0,0,0,32.6,10.84Z"/><path class="cls-5" d="M54.36,32.6c0,.17,0,.33,0,.5H33.1V54.35h-1V33.1H10.85c0-.17,0-.33,0-.5s0-.33,0-.5H32.1V10.85h1V32.1H54.35C54.36,32.27,54.36,32.43,54.36,32.6Z"/></g></g></svg>